<svg width="482" height="180" viewBox="0 0 482 180" fill="none" xmlns="http://www.w3.org/2000/svg">
<path d="M70.6198 66.4042C71.2378 55.3841 76.6253 45.6469 84.7883 38.7667C92.7764 32.0031 103.505 27.8633 115.283 27.8633C127.003 27.8633 137.731 31.9972 145.719 38.7667C153.882 45.6469 159.246 55.3841 159.888 66.4042C160.506 77.7157 155.952 88.2693 147.993 96.0824C139.83 104.012 128.285 109.027 115.283 109.027C102.281 109.027 90.6774 104.047 82.5727 96.0824C74.5847 88.2693 70.0367 77.7741 70.678 66.4625L70.6198 66.4042Z" fill="white"/>
<path d="M25.9385 145.5C22.9358 141 22.9356 135.5 29.4347 129.5C64 102.5 21.9347 135.5 56.5 108.5C61 117.5 70 123 70 123C70 123 56.1906 135.673 42.4347 146C38.4385 149 28.9412 150 25.9385 145.5Z" fill="#EA7600"/>
<path d="M77.9385 158.5C74.9358 154 74.9356 148.5 81.4347 142.5C97 131 78.8694 144.5 94.4347 133C103.435 136 112.435 136.5 124.435 134.5C124.435 134.5 108.191 148.673 94.4347 159C90.4385 162 80.9412 163 77.9385 158.5Z" fill="#EA7600"/>
<path d="M93.0496 65.5545C93.3673 59.8914 96.1359 54.8876 100.331 51.3519C104.436 47.8762 109.949 45.7488 116.002 45.7488C122.024 45.7488 127.537 47.8732 131.642 51.3519C135.837 54.8876 138.594 59.8914 138.924 65.5545C139.241 71.3674 136.901 76.7908 132.811 80.8059C128.616 84.8809 122.683 87.4577 116.002 87.4577C109.32 87.4577 103.357 84.8988 99.1921 80.8059C95.0872 76.7908 92.75 71.3974 93.0796 65.5845L93.0496 65.5545Z" fill="#265787"/>
<path d="M58.9008 87.4278C61.1301 94.559 64.9235 101.151 70.1671 106.934C75.5605 112.897 82.2123 117.691 89.8829 121.107C97.9431 124.672 106.692 126.5 115.771 126.5C124.85 126.488 133.599 124.63 141.66 121.017C149.33 117.571 155.982 112.777 161.376 106.784C166.649 100.941 170.424 94.3494 172.642 87.2181C173.765 83.6225 174.475 79.9669 174.76 76.3114C175.039 72.7158 174.922 69.0902 174.41 65.4647C173.409 58.4233 170.964 51.8014 167.218 45.8087C163.803 40.2655 159.368 35.4414 154.094 31.3663L154.106 31.3574C143.501 23.5 133.501 19.5 114.001 19C97.5006 20 86.297 24.4987 74.001 34C64.7967 41.9987 60.001 50.5 58.001 62C56.6153 70.4093 56.3117 79.236 58.9008 87.4278ZM142.789 89.8548C135.928 96.8362 126.309 100.821 115.942 100.821C105.545 100.839 95.9265 96.9262 89.0649 89.9448C85.709 86.5289 83.2521 82.6337 81.7239 78.4688C80.2347 74.3638 79.6565 70.0191 80.04 65.6444C80.4026 61.3597 81.679 57.2547 83.7255 53.5692C85.727 49.9436 88.4897 46.6477 91.8755 43.8611C98.5573 38.4377 107.037 35.4713 115.906 35.4713C124.805 35.4593 133.285 38.3748 139.967 43.8011C143.353 46.5697 146.109 49.8537 148.117 53.4793C150.163 57.1648 151.443 61.2398 151.802 65.5545C152.18 69.9292 151.602 74.2739 150.112 78.3789C148.59 82.5737 146.127 86.4689 142.771 89.8848L142.789 89.8548Z" fill="#EA7600"/>
<path d="M52 50L11.0787 83.706C11.0008 83.7629 10.9169 83.8228 10.845 83.8797C5.09204 88.2843 3.2343 95.6254 6.85987 100.24C10.5454 104.944 18.3658 104.974 24.1787 100.267L46.5 80C46 68 46.5 63 52 50Z" fill="#EA7600"/>
<path d="M219.219 52.2812C216.135 52.2812 213.677 53.1771 211.844 54.9688C210.01 56.7396 209.094 59.125 209.094 62.125C209.094 65.1042 210.01 67.5 211.844 69.3125C213.677 71.1042 216.135 72 219.219 72C222.323 72 224.781 71.1146 226.594 69.3438C228.448 67.5729 229.375 65.1875 229.375 62.1875C229.375 59.125 228.458 56.7083 226.625 54.9375C224.812 53.1667 222.344 52.2812 219.219 52.2812ZM209.094 48.4375C211.865 45.4375 215.885 43.9375 221.156 43.9375C227.031 43.9375 231.792 45.6042 235.438 48.9375C239.104 52.2708 240.938 56.6458 240.938 62.0625C240.938 67.3958 239.125 71.7396 235.5 75.0938C231.854 78.4688 227.135 80.1562 221.344 80.1562C216.073 80.1562 211.99 78.6979 209.094 75.7812V79H198.344V32.6562L209.094 35.4062V48.4375ZM245.406 35.4062H256.062V79H245.406V35.4062ZM290.219 57.25C290.031 55.5208 289.167 54.0417 287.625 52.8125C286.083 51.5625 284.062 50.9375 281.562 50.9375C279.062 50.9375 277.042 51.5625 275.5 52.8125C273.958 54.0417 273.083 55.5208 272.875 57.25H290.219ZM289.719 67.7188L298.688 72.875C294.833 77.7292 289.042 80.1562 281.312 80.1562C274.896 80.1562 269.823 78.4792 266.094 75.125C262.365 71.8125 260.5 67.3021 260.5 61.5938C260.5 56.3438 262.344 52.0625 266.031 48.75C269.76 45.3958 274.854 43.7188 281.312 43.7188C287.979 43.7188 293.115 45.4375 296.719 48.875C300.302 52.3125 302.094 57 302.094 62.9375V64.4375H272.562C272.625 66.9583 273.458 68.9688 275.062 70.4688C276.646 71.9688 278.729 72.7188 281.312 72.7188C285.562 72.7188 288.365 71.0521 289.719 67.7188ZM306.5 47H317.219V49.5938C321.031 45.5312 325.521 43.5 330.688 43.5C336.729 43.5 340.969 45.3438 343.406 49.0312C344.781 51.0729 345.469 54.7083 345.469 59.9375V79H334.75V62.25C334.75 58.5833 334.26 56.0208 333.281 54.5625C332.177 52.9167 330.167 52.0938 327.25 52.0938C324.146 52.0938 321.698 52.9583 319.906 54.6875C318.115 56.4375 317.219 58.8542 317.219 61.9375V79H306.5V47ZM381.656 62.125C381.656 59.125 380.74 56.7396 378.906 54.9688C377.052 53.1771 374.583 52.2812 371.5 52.2812C368.375 52.2812 365.906 53.1667 364.094 54.9375C362.26 56.7292 361.344 59.1458 361.344 62.1875C361.344 65.1875 362.271 67.5729 364.125 69.3438C365.958 71.1146 368.417 72 371.5 72C374.583 72 377.052 71.1042 378.906 69.3125C380.74 67.5 381.656 65.1042 381.656 62.125ZM381.656 34.1875H392.375V79H381.656V75.7812C378.74 78.6979 374.646 80.1562 369.375 80.1562C363.583 80.1562 358.875 78.4688 355.25 75.0938C351.625 71.7396 349.812 67.3958 349.812 62.0625C349.812 56.6458 351.635 52.2708 355.281 48.9375C358.927 45.6042 363.698 43.9375 369.594 43.9375C374.844 43.9375 378.865 45.4375 381.656 48.4375V34.1875ZM426.531 57.25C426.344 55.5208 425.479 54.0417 423.938 52.8125C422.396 51.5625 420.375 50.9375 417.875 50.9375C415.375 50.9375 413.354 51.5625 411.812 52.8125C410.271 54.0417 409.396 55.5208 409.188 57.25H426.531ZM426.031 67.7188L435 72.875C431.146 77.7292 425.354 80.1562 417.625 80.1562C411.208 80.1562 406.135 78.4792 402.406 75.125C398.677 71.8125 396.812 67.3021 396.812 61.5938C396.812 56.3438 398.656 52.0625 402.344 48.75C406.073 45.3958 411.167 43.7188 417.625 43.7188C424.292 43.7188 429.427 45.4375 433.031 48.875C436.615 52.3125 438.406 57 438.406 62.9375V64.4375H408.875C408.938 66.9583 409.771 68.9688 411.375 70.4688C412.958 71.9688 415.042 72.7188 417.625 72.7188C421.875 72.7188 424.677 71.0521 426.031 67.7188ZM442.812 79V47H453.531V48.9688C456.74 45.1146 460.229 43.1875 464 43.1875C464.333 43.1875 465.333 43.2708 467 43.4375V52.5625C466.312 52.4583 465.177 52.4062 463.594 52.4062C460.469 52.4062 458.01 53.3854 456.219 55.3438C454.427 57.3229 453.531 60.0521 453.531 63.5312V79H442.812Z" fill="#265787"/>
<path d="M201.114 141V94.4545H208.136V134.955H229.227V141H201.114ZM246.852 141.773C244.64 141.773 242.64 141.364 240.852 140.545C239.064 139.712 237.648 138.508 236.602 136.932C235.572 135.356 235.057 133.424 235.057 131.136C235.057 129.167 235.436 127.545 236.193 126.273C236.951 125 237.973 123.992 239.261 123.25C240.549 122.508 241.989 121.947 243.58 121.568C245.17 121.189 246.792 120.902 248.443 120.705C250.534 120.462 252.231 120.265 253.534 120.114C254.837 119.947 255.784 119.682 256.375 119.318C256.966 118.955 257.261 118.364 257.261 117.545V117.386C257.261 115.402 256.701 113.864 255.58 112.773C254.473 111.682 252.822 111.136 250.625 111.136C248.337 111.136 246.534 111.644 245.216 112.659C243.913 113.659 243.011 114.773 242.511 116L236.125 114.545C236.883 112.424 237.989 110.712 239.443 109.409C240.913 108.091 242.602 107.136 244.511 106.545C246.42 105.939 248.428 105.636 250.534 105.636C251.928 105.636 253.405 105.803 254.966 106.136C256.542 106.455 258.011 107.045 259.375 107.909C260.754 108.773 261.883 110.008 262.761 111.614C263.64 113.205 264.08 115.273 264.08 117.818V141H257.443V136.227H257.17C256.731 137.106 256.072 137.97 255.193 138.818C254.314 139.667 253.186 140.371 251.807 140.932C250.428 141.492 248.777 141.773 246.852 141.773ZM248.33 136.318C250.208 136.318 251.814 135.947 253.148 135.205C254.496 134.462 255.519 133.492 256.216 132.295C256.928 131.083 257.284 129.788 257.284 128.409V123.909C257.042 124.152 256.572 124.379 255.875 124.591C255.193 124.788 254.413 124.962 253.534 125.114C252.655 125.25 251.799 125.379 250.966 125.5C250.133 125.606 249.436 125.697 248.875 125.773C247.557 125.939 246.352 126.22 245.261 126.614C244.186 127.008 243.322 127.576 242.67 128.318C242.034 129.045 241.716 130.015 241.716 131.227C241.716 132.909 242.337 134.182 243.58 135.045C244.822 135.894 246.405 136.318 248.33 136.318ZM295.244 126.523V106.091H302.062V141H295.381V134.955H295.017C294.214 136.818 292.926 138.371 291.153 139.614C289.396 140.841 287.206 141.455 284.585 141.455C282.343 141.455 280.358 140.962 278.631 139.977C276.919 138.977 275.57 137.5 274.585 135.545C273.616 133.591 273.131 131.174 273.131 128.295V106.091H279.926V127.477C279.926 129.856 280.585 131.75 281.903 133.159C283.222 134.568 284.934 135.273 287.04 135.273C288.313 135.273 289.578 134.955 290.835 134.318C292.108 133.682 293.161 132.72 293.994 131.432C294.843 130.144 295.259 128.508 295.244 126.523ZM317.989 120.273V141H311.193V106.091H317.716V111.773H318.148C318.951 109.924 320.208 108.439 321.92 107.318C323.648 106.197 325.822 105.636 328.443 105.636C330.822 105.636 332.905 106.136 334.693 107.136C336.481 108.121 337.867 109.591 338.852 111.545C339.837 113.5 340.33 115.917 340.33 118.795V141H333.534V119.614C333.534 117.083 332.875 115.106 331.557 113.682C330.239 112.242 328.428 111.523 326.125 111.523C324.549 111.523 323.148 111.864 321.92 112.545C320.708 113.227 319.746 114.227 319.034 115.545C318.337 116.848 317.989 118.424 317.989 120.273ZM364.148 141.705C360.769 141.705 357.86 140.939 355.42 139.409C352.996 137.864 351.133 135.735 349.83 133.023C348.527 130.311 347.875 127.205 347.875 123.705C347.875 120.159 348.542 117.03 349.875 114.318C351.208 111.591 353.087 109.462 355.511 107.932C357.936 106.402 360.792 105.636 364.08 105.636C366.731 105.636 369.095 106.129 371.17 107.114C373.246 108.083 374.92 109.447 376.193 111.205C377.481 112.962 378.246 115.015 378.489 117.364H371.875C371.511 115.727 370.678 114.318 369.375 113.136C368.087 111.955 366.36 111.364 364.193 111.364C362.299 111.364 360.64 111.864 359.216 112.864C357.807 113.848 356.708 115.258 355.92 117.091C355.133 118.909 354.739 121.061 354.739 123.545C354.739 126.091 355.125 128.288 355.898 130.136C356.67 131.985 357.761 133.417 359.17 134.432C360.595 135.447 362.269 135.955 364.193 135.955C365.481 135.955 366.648 135.72 367.693 135.25C368.754 134.765 369.64 134.076 370.352 133.182C371.08 132.288 371.587 131.212 371.875 129.955H378.489C378.246 132.212 377.511 134.227 376.284 136C375.057 137.773 373.413 139.167 371.352 140.182C369.307 141.197 366.905 141.705 364.148 141.705ZM392.551 120.273V141H385.756V94.4545H392.46V111.773H392.892C393.71 109.894 394.96 108.402 396.642 107.295C398.324 106.189 400.521 105.636 403.233 105.636C405.627 105.636 407.718 106.129 409.506 107.114C411.309 108.098 412.703 109.568 413.688 111.523C414.688 113.462 415.188 115.886 415.188 118.795V141H408.392V119.614C408.392 117.053 407.733 115.068 406.415 113.659C405.097 112.235 403.263 111.523 400.915 111.523C399.309 111.523 397.869 111.864 396.597 112.545C395.339 113.227 394.347 114.227 393.619 115.545C392.907 116.848 392.551 118.424 392.551 120.273ZM439.301 141.705C435.862 141.705 432.9 140.97 430.415 139.5C427.945 138.015 426.036 135.932 424.688 133.25C423.354 130.553 422.688 127.394 422.688 123.773C422.688 120.197 423.354 117.045 424.688 114.318C426.036 111.591 427.915 109.462 430.324 107.932C432.748 106.402 435.581 105.636 438.824 105.636C440.794 105.636 442.703 105.962 444.551 106.614C446.4 107.265 448.059 108.288 449.528 109.682C450.998 111.076 452.157 112.886 453.006 115.114C453.854 117.326 454.278 120.015 454.278 123.182V125.591H426.528V120.5H447.619C447.619 118.712 447.256 117.129 446.528 115.75C445.801 114.356 444.778 113.258 443.46 112.455C442.157 111.652 440.627 111.25 438.869 111.25C436.96 111.25 435.294 111.72 433.869 112.659C432.46 113.583 431.369 114.795 430.597 116.295C429.839 117.78 429.46 119.394 429.46 121.136V125.114C429.46 127.447 429.869 129.432 430.688 131.068C431.521 132.705 432.68 133.955 434.165 134.818C435.65 135.667 437.384 136.091 439.369 136.091C440.657 136.091 441.831 135.909 442.892 135.545C443.953 135.167 444.869 134.606 445.642 133.864C446.415 133.121 447.006 132.205 447.415 131.114L453.847 132.273C453.331 134.167 452.407 135.826 451.074 137.25C449.756 138.659 448.097 139.758 446.097 140.545C444.112 141.318 441.847 141.705 439.301 141.705ZM461.818 141V106.091H468.386V111.636H468.75C469.386 109.758 470.508 108.28 472.114 107.205C473.735 106.114 475.568 105.568 477.614 105.568C478.038 105.568 478.538 105.583 479.114 105.614C479.705 105.644 480.167 105.682 480.5 105.727V112.227C480.227 112.152 479.742 112.068 479.045 111.977C478.348 111.871 477.652 111.818 476.955 111.818C475.348 111.818 473.917 112.159 472.659 112.841C471.417 113.508 470.432 114.439 469.705 115.636C468.977 116.818 468.614 118.167 468.614 119.682V141H461.818Z" fill="#EA7600"/>
</svg>
